<?xml version="1.0" encoding="UTF-8"?>
<svg xmlns="http://www.w3.org/2000/svg" version="1.1" viewBox="0 0 164 25">
  <defs>
    <style>
      .cls-1 {
        fill: #fff;
      }
    </style>
  </defs>
  <!-- Generator: Adobe Illustrator 28.6.0, SVG Export Plug-In . SVG Version: 1.2.0 Build 709)  -->
  <g>
    <g id="_レイヤー_1" data-name="レイヤー_1">
      <g id="Page-1">
        <g id="logo">
          <g id="Group">
            <polygon id="Shape" class="cls-1" points="16.21978 16.03956 16.21978 16.03956 8.10989 8.01978 16.21978 0 8.10989 0 0 8.01978 4.05494 12.07473 8.10989 16.03956 12.16483 20.0044 16.21978 16.03956"/>
            <polygon id="Shape-2" data-name="Shape" class="cls-1" points="21.98681 12.07473 17.93187 8.01978 13.87692 4.05494 9.91209 8.01978 17.93187 16.03956 17.93187 16.03956 17.93187 16.03956 9.82198 24.05934 17.93187 24.05934 21.98681 20.09451 26.04176 16.03956 21.98681 12.07473"/>
          </g>
          <g id="Group-2" data-name="Group">
            <path id="Shape-3" data-name="Shape" class="cls-1" d="M36.13407,8.0198c-1.17143,0-2.16264.36044-2.88352,1.17143-.72088.81099-1.08132,1.89231-1.08132,3.33407s.36044,2.52308.99121,3.33407c.72088.81099,1.62198,1.17143,2.88352,1.17143.81099,0,1.62198-.18022,2.61319-.45055v1.17143c-.81099.27033-1.71209.45055-2.79341.45055-1.62198,0-2.88352-.45055-3.78462-1.44176-.9011-.99121-1.35165-2.43297-1.35165-4.23517,0-1.17143.18022-2.16264.63077-2.97363.45055-.81099,1.08132-1.53187,1.8022-1.98242.72088-.45055,1.71209-.72088,2.88352-.72088s2.16264.18022,3.06374.63077l-.54066,1.08132c-.72088-.27033-1.53187-.54066-2.43297-.54066Z"/>
            <path id="Shape-4" data-name="Shape" class="cls-1" d="M47.3978,15.13848c0,.99121-.36044,1.71209-1.08132,2.25275-.72088.54066-1.62198.81099-2.88352.81099-1.35165,0-2.34286-.18022-3.06374-.54066v-1.26154c.45055.18022.99121.36044,1.44176.45055.45055.09011,1.08132.18022,1.62198.18022.9011,0,1.53187-.18022,1.89231-.45055.45055-.36044.63077-.81099.63077-1.35165,0-.36044-.09011-.72088-.27033-.9011-.18022-.27033-.45055-.45055-.81099-.72088-.36044-.18022-.9011-.45055-1.62198-.72088-.99121-.36044-1.8022-.81099-2.16264-1.35165-.45055-.54066-.63077-1.17143-.63077-1.98242s.36044-1.53187.99121-2.07253c.63077-.54066,1.53187-.72088,2.52308-.72088,1.08132,0,2.07253.18022,3.06374.63077l-.36044,1.08132c-.9011-.36044-1.8022-.54066-2.7033-.54066-.72088,0-1.17143.18022-1.62198.45055-.36044.27033-.54066.72088-.54066,1.26154,0,.36044.09011.72088.18022.9011.18022.27033.36044.45055.72088.63077.36044.18022.81099.45055,1.53187.72088,1.17143.45055,1.98242.9011,2.43297,1.35165.54066.54066.72088,1.17143.72088,1.89231Z"/>
            <path id="Shape-5" data-name="Shape" class="cls-1" d="M55.95824,15.13848c0,.99121-.36044,1.71209-1.08132,2.25275-.72088.54066-1.62198.81099-2.88352.81099-1.35165,0-2.34286-.18022-3.06374-.54066v-1.26154c.45055.18022.99121.36044,1.44176.45055s1.08132.18022,1.62198.18022c.9011,0,1.53187-.18022,1.89231-.45055.45055-.36044.63077-.81099.63077-1.35165,0-.36044-.09011-.72088-.27033-.9011-.18022-.27033-.45055-.45055-.81099-.72088-.36044-.18022-.9011-.45055-1.62198-.72088-.99121-.36044-1.8022-.81099-2.16264-1.35165-.45055-.54066-.63077-1.17143-.63077-1.98242s.36044-1.53187.99121-2.07253c.63077-.54066,1.53187-.72088,2.52308-.72088,1.08132,0,2.07253.18022,3.06374.63077l-.36044,1.08132c-.9011-.36044-1.8022-.54066-2.7033-.54066-.72088,0-1.17143.18022-1.62198.45055-.36044.27033-.54066.72088-.54066,1.26154,0,.36044.09011.72088.18022.9011.18022.27033.36044.45055.72088.63077.36044.18022.81099.45055,1.53187.72088,1.17143.45055,1.98242.9011,2.43297,1.35165.45055.54066.72088,1.17143.72088,1.89231Z"/>
            <path id="Shape-6" data-name="Shape" class="cls-1" d="M67.22198,12.34508c0,1.8022-.54066,3.24396-1.53187,4.23516-.99121.99121-2.43296,1.53187-4.32527,1.53187h-3.60439V7.02859h3.78461c1.8022,0,3.15385.45055,4.14505,1.35165.99121.9011,1.53187,2.25275,1.53187,3.96483ZM64.15824,12.43519c0-.99121-.18022-1.8022-.63077-2.25275-.36044-.45055-.99121-.72088-1.8022-.72088h-.9011v6.21758h.63077c.9011,0,1.53187-.27033,1.98242-.81099.54066-.54066.72088-1.35165.72088-2.43297Z"/>
            <path id="Shape-7" data-name="Shape" class="cls-1" d="M73.16923,18.29233c-1.44176,0-2.52308-.36044-3.33406-1.17143-.81099-.72088-1.17143-1.8022-1.17143-3.24396s.36044-2.52308,1.08132-3.33407,1.8022-1.17143,3.15385-1.17143c1.26154,0,2.25275.36044,2.97363.99121.72088.63077,1.08132,1.62198,1.08132,2.88352v1.35165h-5.31648c0,.45055.18022.81099.54066,1.17143.36044.27033.81099.45055,1.35165.45055s.99121-.09011,1.44176-.18022c.45055-.09011.9011-.27033,1.44176-.54066v2.16264c-.45055.27033-.9011.36044-1.44176.45055-.54066.09011-1.08132.18022-1.8022.18022ZM72.98901,11.44398c-.36044,0-.63077.09011-.9011.36044-.27033.18022-.36044.54066-.45055.99121h2.52308c0-.45055-.09011-.72088-.36044-.99121-.09011-.27033-.36044-.36044-.81099-.36044Z"/>
            <path id="Shape-8" data-name="Shape" class="cls-1" d="M85.24396,15.49892c0,.9011-.27033,1.62198-.9011,2.07253-.63077.45055-1.53187.72088-2.7033.72088-.63077,0-1.17143,0-1.62198-.09011s-.99121-.18022-1.44176-.36044v-2.34286c.45055.18022.99121.36044,1.53187.54066.54066.09011.99121.18022,1.44176.18022.63077,0,.99121-.18022.99121-.45055,0-.18022-.09011-.27033-.27033-.36044-.18022-.09011-.72088-.36044-1.53187-.72088-.81099-.36044-1.35165-.72088-1.62197-1.08132-.27033-.45055-.45055-.9011-.45055-1.53187,0-.81099.27033-1.44176.9011-1.89231.63077-.45055,1.44176-.63077,2.61319-.63077.54066,0,1.08132.09011,1.62198.18022.54066.09011.99121.27033,1.53187.54066l-.81099,1.89231c-.36044-.18022-.81099-.36044-1.26154-.45055-.45055-.09011-.81099-.18022-1.08132-.18022-.45055,0-.72088.09011-.72088.36044,0,.18022.09011.27033.27033.36044.18022.09011.63077.27033,1.44176.63077.63077.27033,1.08132.45055,1.35165.72088.27033.27033.54066.54066.63077.81099,0,.18022.09011.63077.09011,1.08132Z"/>
            <path id="Shape-9" data-name="Shape" class="cls-1" d="M86.86594,7.38903c0-.45055.09011-.81099.36044-.99121.27033-.18022.63077-.36044,1.17143-.36044s.99121.09011,1.17143.36044c.27033.18022.36044.54066.36044.99121,0,.9011-.54066,1.26154-1.62198,1.26154-.99121.09011-1.44176-.36044-1.44176-1.26154ZM89.83956,18.11211h-2.97363v-8.56044h2.97363v8.56044Z"/>
            <path id="Shape-10" data-name="Shape" class="cls-1" d="M100.02198,9.55167v1.44176l-1.17142.45055c.18022.27033.27032.63077.27032.99121,0,.9011-.36044,1.62198-.9912,2.16264s-1.62198.72088-2.88352.72088c-.36044,0-.54066,0-.72087-.09011-.09011.09011-.09011.27033-.09011.36044,0,.18022.09011.27033.36044.36044.27033.09011.54066.09011.9011.09011h1.44176c1.89231,0,2.88351.81099,2.88351,2.43297,0,1.08132-.45055,1.89231-1.35165,2.43297-.9011.54066-2.16264.9011-3.78461.9011-1.17143,0-2.16264-.18022-2.79341-.63077-.63077-.36044-.99121-.99121-.99121-1.71209,0-.99121.63077-1.71209,1.89231-1.98242-.27033-.09011-.45055-.27033-.72088-.54066-.18022-.27033-.27033-.45055-.27033-.72088s.09011-.54066.18022-.72088c.18022-.18022.45055-.45055.9011-.72088-.45055-.18022-.81099-.54066-1.08132-.9011-.27033-.45055-.36044-.9011-.36044-1.53187,0-.9011.36044-1.62198.99121-2.16264.63077-.54066,1.53187-.81099,2.70329-.81099.18022,0,.45055,0,.81099.09011.36044,0,.63077.09011.81099.09011h3.06374ZM93.53407,19.19343c0,.27033.09011.45055.36044.63077.27033.18022.63077.18022,1.08132.18022.72088,0,1.26154-.09011,1.71209-.27033.45055-.18022.63077-.45055.63077-.72088s-.09011-.36044-.36044-.45055c-.27032-.09011-.63077-.18022-1.17142-.18022h-1.17143c-.36044,0-.54066.09011-.81099.18022-.18022.18022-.27033.36044-.27033.63077ZM94.43517,12.34508c0,.9011.27033,1.35165.9011,1.35165.27033,0,.54066-.09011.63078-.36044.18021-.18022.27032-.54066.27032-.99121,0-.9011-.27032-1.35165-.9011-1.35165-.54066,0-.9011.45055-.9011,1.35165Z"/>
            <path id="Shape-11" data-name="Shape" class="cls-1" d="M106.69011,18.11211v-4.68571c0-.54066-.09011-.99121-.27033-1.26154-.18022-.27033-.45055-.45055-.81099-.45055-.54066,0-.9011.18022-1.08132.63077-.18021.36044-.36044,1.08132-.36044,2.07253v3.78462h-2.97363v-8.56044h2.25275l.36044,1.08132h.18022c.27033-.36044.63077-.72088,1.08132-.9011.45055-.18022.99121-.27033,1.53187-.27033.99121,0,1.71209.27033,2.25275.81099.54066.54066.81099,1.35165.81099,2.34286v5.58681h-2.97363v-.18022Z"/>
            <path id="Shape-12" data-name="Shape" class="cls-1" d="M119.12528,18.11211l-1.35165-3.51429h-4.41538l-1.35165,3.51429h-1.26154l4.41539-11.08352h1.08131l4.32528,11.08352h-1.44176ZM117.32308,13.4264l-1.26154-3.42418c-.18022-.45055-.36044-.99121-.54066-1.62198-.09011.45055-.27032.99121-.45055,1.62198l-1.26154,3.42418h3.51429Z"/>
            <path id="Shape-13" data-name="Shape" class="cls-1" d="M128.58681,18.11211l-1.53187-4.86593c-.09011-.27033-.27032-.99121-.54066-1.98242h-.09011c-.18022.9011-.36044,1.53187-.54066,2.07253l-1.53187,4.86593h-1.44176l-2.25275-8.29011h1.35165c.54066,2.07253.9011,3.69451,1.26154,4.77582.27033,1.08132.45055,1.8022.45055,2.16264h.09011c.0901-.27033.18021-.63077.27032-1.08132.09011-.45055.27033-.81099.36044-1.08132l1.53187-4.77582h1.35165l1.44176,4.77582c.27033.9011.45055,1.62198.54066,2.16264h.09011c0-.18022.09011-.45055.18022-.81099s.63077-2.43297,1.53187-6.12747h1.26154l-2.25275,8.29011h-1.53187v-.09011Z"/>
            <path id="Shape-14" data-name="Shape" class="cls-1" d="M138.94945,18.11211l-.27033-1.17143h-.09011c-.45055.54066-.81099.9011-1.26154,1.08132-.45055.18022-.9011.27033-1.53187.27033-.81099,0-1.44176-.18022-1.8923-.63077-.45055-.45055-.72089-.99121-.72089-1.8022,0-1.71209,1.35165-2.52308,4.05495-2.61319l1.44176-.09011v-.54066c0-.63077-.18021-1.17143-.45055-1.44176-.27033-.27033-.72088-.45055-1.35165-.45055-.72088,0-1.44176.18022-2.34286.63077l-.36044-.99121c.45055-.18022.81099-.36044,1.35165-.54066.45055-.09011.99121-.18022,1.44176-.18022.9912,0,1.71208.18022,2.16264.63077.45055.45055.72088,1.17143.72088,2.07253v5.67692h-.9011v.09011ZM136.06594,17.21101c.81099,0,1.35165-.18022,1.80219-.63077.45055-.45055.63078-.99121.63078-1.8022v-.72088l-1.26154.09011c-.99121,0-1.71209.18022-2.16264.45055s-.63077.72088-.63077,1.26154c0,.45055.18022.81099.45055.99121.36044.27033.72088.36044,1.17143.36044Z"/>
            <path id="Shape-15" data-name="Shape" class="cls-1" d="M146.24836,9.64178c.36044,0,.72088,0,.9912.09011l-.18021,1.17143c-.36044-.09011-.63078-.09011-.9011-.09011-.63078,0-1.26154.27033-1.71209.81099-.45055.54066-.72088,1.26154-.72088,2.07253v4.41539h-1.26154v-8.29011h.99121l.18022,1.53187h.09011c.27032-.54066.72088-.99121,1.08131-1.26154.45055-.27033.9011-.45055,1.44176-.45055Z"/>
            <path id="Shape-16" data-name="Shape" class="cls-1" d="M154.44835,17.03079h0c-.63077.81099-1.53187,1.26154-2.7033,1.26154-1.08131,0-1.8923-.36044-2.52307-1.08132-.63077-.72088-.9011-1.8022-.9011-3.15385s.27033-2.43297.9011-3.15385,1.44176-1.17143,2.52307-1.17143,1.98242.45055,2.61319,1.26154h.09011l-.09011-.63077v-4.05495h1.26154v11.8044h-.9912l-.18022-1.08132ZM151.92527,17.21101c.9011,0,1.44176-.27033,1.89231-.72088.36044-.45055.54066-1.26154.54066-2.25275v-.27033c0-1.17143-.18022-1.98242-.63077-2.52308-.36044-.54066-.99121-.72088-1.89231-.72088-.72088,0-1.26154.27033-1.71208.9011-.36044.54066-.63078,1.35165-.63078,2.43297s.18022,1.89231.54066,2.43297c.54066.45055,1.08131.72088,1.8923.72088Z"/>
            <path id="Shape-17" data-name="Shape" class="cls-1" d="M163.63956,15.85936c0,.81099-.27032,1.35165-.90109,1.8022-.54066.45055-1.35165.63077-2.43297.63077s-1.98242-.18022-2.61319-.54066v-1.17143c.36044.18022.81099.36044,1.26154.45055s.90109.18022,1.35165.18022c.63077,0,1.17142-.09011,1.53186-.27033s.54066-.54066.54066-.99121c0-.36044-.18022-.63077-.45055-.81099-.27034-.27033-.81099-.54066-1.62198-.81099s-1.35165-.54066-1.62198-.72088c-.36044-.18022-.54066-.45055-.72089-.72088-.18021-.27033-.27032-.63077-.27032-.99121,0-.63077.27032-1.17143.81099-1.62198.54065-.45055,1.26154-.63077,2.25275-.63077.90109,0,1.8022.18022,2.61319.54066l-.45055.99121c-.81099-.36044-1.62198-.54066-2.25276-.54066s-1.08131.09011-1.35164.27033c-.27034.18022-.45055.45055-.45055.81099,0,.18022.0901.45055.18021.54066.09012.18022.27034.27033.54066.45055s.72089.36044,1.44176.63077c.99121.36044,1.62198.72088,1.98242,1.08132.45055.45055.63077.9011.63077,1.44176Z"/>
          </g>
        </g>
      </g>
    </g>
  </g>
</svg>